<?xml version="1.0" encoding="utf-8"?>
<!-- Generator: Adobe Illustrator 25.0.1, SVG Export Plug-In . SVG Version: 6.00 Build 0)  -->
<svg version="1.0" id="katman_1" xmlns="http://www.w3.org/2000/svg" xmlns:xlink="http://www.w3.org/1999/xlink" x="0px" y="0px"
	 viewBox="0 0 560 400" style="enable-background:new 0 0 560 400;" xml:space="preserve">
<style type="text/css">
	.st0{fill-rule:evenodd;clip-rule:evenodd;fill:#6441A5;}
</style>
<path class="st0" d="M477.5,178.7L461,162.2h-30.8v-21.3h-26v97h26v-49.7h21.3v49.7h26V178.7z M394.7,162.2h-40.2L338,178.7v42.6
	l16.6,16.6h40.2v-26H364v-23.7h30.8V162.2z M328.5,162.2h-21.3v-21.3h-26v80.4l16.6,16.6h30.8v-26h-21.3v-23.7h21.3V162.2z
	 M271.7,140.9h-26v11.8h26V140.9z M271.7,162.2h-26v75.7h26V162.2z M236.2,162.2h-26v49.7h-9.5v-49.7h-26v49.7h-9.5v-49.7h-26v75.7
	h80.4l16.6-16.6L236.2,162.2z M129.8,162.2h-21.3v-21.3h-26v80.4L99,237.9h30.8v-26h-21.3v-23.7h21.3L129.8,162.2z M487,174v71
	l-35.5,23.7h-23.7v-11.8l-16.6,11.8H390v-11.8l-11.8,11.8h-37.9l-11.8-11.8l-2.4,11.8H293l-13.5-11.8l-0.8,11.8h-37.5l-1.3-11.8
	l-10.2,11.8h-57.3l-11.8-4.7v4.7h-30.8l-35.5-21.3L73,226v-94.6h45l21.3,21.3h97v-21.3h80.4v21.3H338v11.8l11.8-11.8h23.7l21.3-21.3
	h44.9v21.3h26L487,174z"/>
</svg>
